<svg id="Layer_1" data-name="Layer 1" xmlns="http://www.w3.org/2000/svg" viewBox="0 0 1200 60"><title>wave-2</title><path d="M0,22.16l6.5-2c6.5-2,19.5-5.87,32.3-3.72S64.3,26.92,77.2,32.14s25.8,7.44,38.8.78,26-22.05,39-27.21,26,.13,38.8,6.79,25.5,14.68,38.4,12.72,25.8-14,38.8-15.14,26,8.36,38.8,9.6,25.5-6,38.4-4S374,28.68,387,30.77s26-4.9,39-11.09S452,8,464.8,10.21s25.5,12,38.4,16S529,28.48,542,29.46s26,4.64,38.8.39,25.5-16.37,38.4-23.49,25.8-9,38.8-1.95,26,23.16,38.8,27.86,25.5-2.09,38.4-1.83S761,37.82,774,37.68s26-7.5,39-11.28,26-4,38.8-5.09,25.5-3.07,38.4.06S916,32.79,929,37.49s26,5.74,38.8,5.41a226.51,226.51,0,0,0,38.4-4.56c12.8-2.48,25.8-5.74,38.8-6.53s26,1,39,.65a125.91,125.91,0,0,0,38.8-7.17c12.9-4.44,25.5-11,38.4-13.77s25.8-2,32.3-1.57l6.5.46V60H0Z" transform="translate(0 0)" style="fill:#29a19c"/></svg>
