<svg id="visual" viewBox="0 0 1200 600" width="1200" height="600" xmlns="http://www.w3.org/2000/svg" xmlns:xlink="http://www.w3.org/1999/xlink" version="1.1">
<path d="M0 543L6.5 540C13 537 26 531 38.8 534.3C51.7 537.7 64.3 550.3 77.2 558.3C90 566.3 103 569.7 116 559.5C129 549.3 142 525.7 155 517.8C168 510 181 518 193.8 528.2C206.7 538.3 219.3 550.7 232.2 547.7C245 544.7 258 526.3 271 524.5C284 522.7 297 537.3 309.8 539.2C322.7 541 335.3 530 348.2 533C361 536 374 553 387 556.2C400 559.3 413 548.7 426 539.2C439 529.7 452 521.3 464.8 524.7C477.7 528 490.3 543 503.2 549.2C516 555.3 529 552.7 542 554.2C555 555.7 568 561.3 580.8 554.8C593.7 548.3 606.3 529.7 619.2 518.8C632 508 645 505 658 515.8C671 526.7 684 551.3 696.8 558.5C709.7 565.7 722.3 555.3 735.2 555.7C748 556 761 567 774 566.8C787 566.7 800 555.3 813 549.5C826 543.7 839 543.3 851.8 541.7C864.7 540 877.3 537 890.2 541.8C903 546.7 916 559.3 929 566.5C942 573.7 955 575.3 967.8 574.8C980.7 574.3 993.3 571.7 1006.2 567.8C1019 564 1032 559 1045 557.8C1058 556.7 1071 559.3 1084 558.8C1097 558.3 1110 554.7 1122.8 547.8C1135.7 541 1148.3 531 1161.2 526.7C1174 522.3 1187 523.7 1193.5 524.3L1200 525L1200 601L1193.5 601C1187 601 1174 601 1161.2 601C1148.3 601 1135.7 601 1122.8 601C1110 601 1097 601 1084 601C1071 601 1058 601 1045 601C1032 601 1019 601 1006.2 601C993.3 601 980.7 601 967.8 601C955 601 942 601 929 601C916 601 903 601 890.2 601C877.3 601 864.7 601 851.8 601C839 601 826 601 813 601C800 601 787 601 774 601C761 601 748 601 735.2 601C722.3 601 709.7 601 696.8 601C684 601 671 601 658 601C645 601 632 601 619.2 601C606.3 601 593.7 601 580.8 601C568 601 555 601 542 601C529 601 516 601 503.2 601C490.3 601 477.7 601 464.8 601C452 601 439 601 426 601C413 601 400 601 387 601C374 601 361 601 348.2 601C335.3 601 322.7 601 309.8 601C297 601 284 601 271 601C258 601 245 601 232.2 601C219.3 601 206.7 601 193.8 601C181 601 168 601 155 601C142 601 129 601 116 601C103 601 90 601 77.2 601C64.3 601 51.7 601 38.8 601C26 601 13 601 6.5 601L0 601Z" fill="#29a19c" stroke-linecap="round" stroke-linejoin="miter">
</path>
</svg>